<?xml version="1.0" standalone="no"?>
<!DOCTYPE svg PUBLIC "-//W3C//DTD SVG 1.1//EN" "http://www.w3.org/Graphics/SVG/1.1/DTD/svg11.dtd">
<svg width="100%" height="100%" viewBox="0 0 1300 829" version="1.1" xmlns="http://www.w3.org/2000/svg" xmlns:xlink="http://www.w3.org/1999/xlink" xml:space="preserve" style="fill-rule:evenodd;clip-rule:evenodd;stroke-linejoin:round;stroke-miterlimit:1.41421;">
    <g transform="matrix(1,0,0,1,-0,-22)">
        <g id="Prancheta2" transform="matrix(0.863214,0,0,0.873091,1912.88,22)">
            <g id="XMLID_1791_" transform="matrix(1.15846,0,0,1.14536,-2302.88,-25.1978)">
                <rect id="XMLID_2671_" x="588.726" y="746.975" width="4" height="22" style="fill:black;"/>
                <path id="XMLID_2576_" d="M211.003,769.316C208.609,769.316 206.263,769.176 204.03,768.9L206.729,747.066C208.07,747.232 209.508,747.316 211.003,747.316L213.306,747.31L213.365,769.31L211.003,769.316ZM221.34,769.289L221.283,747.289L229.269,747.268L229.326,769.268L221.34,769.289ZM237.312,769.248L237.255,747.248L245.246,747.229L245.294,769.229L237.312,769.248ZM253.277,769.212L253.237,747.212L261.15,747.195L261.244,758.195L261.198,769.195L253.277,769.212ZM269.256,769.179L269.207,747.179L277.199,747.163L277.239,769.163L269.256,769.179ZM285.223,769.147L285.191,747.147L293.116,747.133L293.195,758.133L293.156,769.133L285.223,769.147ZM301.203,769.12L301.163,747.12L309.156,747.107L309.188,769.107L301.203,769.12ZM317.177,769.095L317.145,747.095L325.134,747.083L325.166,769.083L317.177,769.095ZM333.151,769.071L333.127,747.071L341.117,747.061L341.141,769.061L333.151,769.071ZM349.131,769.052L349.107,747.052L357.097,747.043L357.121,769.043L349.131,769.052ZM365.108,769.034L365.092,747.034L373.039,747.026L373.091,758.026L373.064,769.026L365.108,769.034ZM381.093,769.02L381.069,747.02L389.064,747.013L389.08,769.013L381.093,769.02ZM397.072,769.006L397.055,747.006L405.047,747L405.063,769L397.072,769.006ZM413.052,768.994L413.044,746.994L421.005,746.989L421.04,757.989L421.021,768.989L413.052,768.994ZM429.041,768.985L429.025,746.985L437.022,746.981L437.03,768.981L429.041,768.985ZM445.021,768.978L445.013,746.978L453.006,746.975L453.014,768.975L445.021,768.978ZM580.747,768.973L572.777,768.971L572.777,746.971L580.74,746.973L580.747,768.973ZM461.005,768.972L461.005,746.972L468.981,746.97L468.998,757.97L468.989,768.97L461.005,768.972ZM564.8,768.97L556.83,768.968L556.83,746.968L564.793,746.97L564.8,768.97ZM476.991,768.967L476.991,746.967L484.985,746.966L484.985,768.966L476.991,768.967ZM548.856,768.966L540.879,768.965L540.887,746.965L548.856,746.966L548.856,768.966ZM492.983,768.966L492.975,746.966L500.974,746.965L500.974,768.965L492.983,768.966ZM532.909,768.965L524.931,768.964L524.939,746.964L532.909,746.965L532.909,768.965ZM516.962,768.964L508.969,768.964L508.969,746.964L516.962,746.964L516.962,768.964ZM193.881,766.502C190.375,765.226 187.108,763.5 184.169,761.372L197.071,743.554C198.376,744.498 199.793,745.242 201.404,745.828L193.881,766.502ZM176.263,753.743C174.183,751.097 172.351,748.099 170.816,744.832L190.729,735.478C191.556,737.24 192.508,738.81 193.559,740.147L176.263,753.743ZM167.439,735.636C166.646,732.795 165.996,729.737 165.508,726.544L187.255,723.22C187.61,725.541 188.072,727.728 188.628,729.72L167.439,735.636ZM164.445,718.824C164.049,716.489 163.552,714.262 162.97,712.206L184.137,706.21C184.935,709.026 185.607,712.032 186.135,715.145L164.445,718.824ZM160.814,706.161C159.967,704.248 158.996,702.474 157.926,700.89L176.16,688.581C177.955,691.24 179.561,694.16 180.932,697.259L160.814,706.161ZM154.288,696.525C152.958,695.235 151.47,694.074 149.864,693.073L161.499,674.401C164.43,676.227 167.158,678.358 169.608,680.736L154.288,696.525ZM144.615,690.486C142.772,689.78 140.754,689.191 138.617,688.735L143.205,667.219C146.455,667.911 149.578,668.827 152.484,669.941L144.615,690.486ZM131.783,687.739C127.239,687.219 122.987,685.487 119.144,682.591L132.388,665.025C133.286,665.702 133.899,665.838 134.282,665.882L131.783,687.739ZM111.287,674.136C109.527,671.539 107.921,668.569 106.514,665.306L126.714,656.591C127.575,658.587 128.512,660.337 129.498,661.792L111.287,674.136ZM103.373,656.427C102.51,653.382 101.837,650.276 101.479,647.679L101.404,647.131L123.195,644.108L123.275,644.686C123.378,645.428 123.709,647.497 124.539,650.425L103.373,656.427ZM100.374,638.982C100.066,636.355 99.771,633.653 99.489,630.885L121.375,628.651C121.646,631.307 121.929,633.9 122.225,636.422L100.374,638.982ZM98.714,622.809C98.477,620.169 98.25,617.481 98.031,614.748L119.962,612.996C120.174,615.656 120.395,618.272 120.626,620.84L98.714,622.809ZM97.425,606.695C97.237,604.047 97.056,601.365 96.883,598.654L118.838,597.252C119.008,599.91 119.184,602.539 119.369,605.135L97.425,606.695ZM96.4,590.616C96.248,587.96 96.104,585.282 95.965,582.587L117.936,581.456C118.073,584.11 118.215,586.747 118.364,589.362L96.4,590.616ZM95.574,574.56C95.451,571.902 95.335,569.232 95.223,566.553L117.204,565.637C117.314,568.283 117.429,570.919 117.55,573.544L95.574,574.56ZM94.908,558.536C94.809,555.866 94.714,553.192 94.625,550.519L116.612,549.785C116.7,552.431 116.794,555.077 116.892,557.72L94.908,558.536ZM94.374,542.495C94.294,539.818 94.219,537.146 94.149,534.484L116.141,533.9C116.211,536.541 116.286,539.189 116.364,541.842L94.374,542.495ZM93.949,526.473C93.887,523.788 93.828,521.118 93.773,518.466L115.768,518.011C115.823,520.643 115.88,523.294 115.943,525.959L93.949,526.473ZM93.62,510.456C93.572,507.761 93.528,505.092 93.487,502.453L115.484,502.109C115.525,504.732 115.569,507.385 115.616,510.063L93.62,510.456ZM93.374,494.445C93.339,491.735 93.307,489.065 93.278,486.441L115.277,486.203C115.305,488.811 115.337,491.466 115.372,494.158L93.374,494.445ZM93.2,478.439C93.176,475.71 93.156,473.041 93.138,470.438L115.137,470.286C115.155,472.875 115.176,475.531 115.199,478.246L93.2,478.439ZM93.09,462.438L93.07,458.296L93.071,454.467L115.071,454.41L115.07,458.248L115.09,462.322L93.09,462.438ZM115.083,446.46L93.083,446.405C93.089,443.812 93.099,441.145 93.112,438.406L115.112,438.511C115.098,441.233 115.089,443.883 115.083,446.46ZM115.162,430.573L93.163,430.399C93.184,427.788 93.208,425.116 93.24,422.385L115.239,422.639C115.208,425.343 115.183,427.987 115.162,430.573ZM115.342,414.703L93.344,414.377C93.383,411.756 93.427,409.085 93.478,406.363L115.474,406.771C115.424,409.466 115.38,412.109 115.342,414.703ZM115.636,398.842L93.642,398.35C93.701,395.722 93.766,393.05 93.837,390.335L115.829,390.915C115.758,393.601 115.694,396.243 115.636,398.842ZM116.055,382.989L94.065,382.321C94.145,379.689 94.232,377.018 94.324,374.309L116.311,375.061C116.219,377.743 116.134,380.385 116.055,382.989ZM116.599,367.141L94.616,366.293C94.718,363.658 94.825,360.988 94.94,358.283L116.92,359.217C116.807,361.893 116.7,364.533 116.599,367.141ZM117.273,351.299L95.297,350.272C95.42,347.634 95.549,344.965 95.687,342.264L117.659,343.379C117.524,346.049 117.396,348.688 117.273,351.299ZM118.077,335.461L96.11,334.256C96.255,331.616 96.406,328.949 96.565,326.253L118.527,327.544C118.37,330.211 118.22,332.851 118.077,335.461ZM119.009,319.629L97.052,318.249C97.218,315.607 97.391,312.939 97.572,310.246L119.522,311.719C119.344,314.381 119.173,317.018 119.009,319.629ZM120.021,303.538L98.045,302.51C98.175,299.733 98.406,296.898 98.752,293.843L120.612,296.316C120.322,298.886 120.128,301.248 120.021,303.538ZM121.631,288.899L99.902,285.461C100.277,283.086 100.721,280.508 101.298,277.348L122.941,281.295C122.396,284.282 121.979,286.698 121.631,288.899ZM124.393,273.5L102.765,269.469C103.14,267.458 103.509,265.448 103.859,263.439C103.963,262.847 104.066,262.26 104.172,261.676L125.819,265.598C125.722,266.135 125.626,266.675 125.532,267.217C125.168,269.309 124.784,271.403 124.393,273.5ZM127.301,258.439L105.93,253.218C106.748,249.869 107.651,246.935 108.69,244.245L129.211,252.175C128.517,253.973 127.892,256.021 127.301,258.439ZM131.701,247.244L113.423,235.002C115.558,231.814 118.101,229.018 120.982,226.691L134.804,243.806C133.631,244.754 132.616,245.879 131.701,247.244ZM138.908,241.428L130.577,221.067C133.596,219.832 136.928,218.887 140.479,218.26L144.305,239.924C142.295,240.279 140.479,240.785 138.908,241.428ZM152.842,238.585L147.684,217.198C149.223,216.827 150.572,216.275 151.807,215.51L163.382,234.219C160.177,236.202 156.631,237.671 152.842,238.585ZM171.965,226.801L155.215,212.537C156.275,211.293 157.267,209.772 158.164,208.017L177.753,218.031C176.079,221.306 174.131,224.257 171.965,226.801ZM181.433,209.094L160.536,202.217C161.191,200.227 161.791,198 162.319,195.598L183.805,200.323C183.118,203.449 182.32,206.4 181.433,209.094ZM185.488,192.558L164.011,187.788C164.729,184.558 165.329,181.997 165.901,179.728L187.234,185.105C186.714,187.167 186.16,189.535 185.488,192.558ZM189.186,178.313L168.359,171.227C169.643,167.454 171.057,164.347 172.682,161.73L191.37,173.337C190.649,174.499 189.915,176.174 189.186,178.313ZM193.185,171.411L181.93,152.508C185.045,150.654 188.66,149.356 192.983,148.542L197.052,170.163C195.333,170.486 194.032,170.906 193.185,171.411ZM203.548,169.461L202.294,147.496C204.683,147.36 207.365,147.275 210.734,147.23L211.028,169.228C207.987,169.27 205.61,169.343 203.548,169.461ZM218.857,169.186L218.839,147.186L226.82,147.184L226.82,169.184L218.857,169.186ZM242.766,169.184L234.793,169.184L234.793,147.184L242.766,147.184L242.766,169.184ZM258.71,169.183L250.737,169.183L250.737,147.183L258.71,147.183L258.71,169.183ZM322.541,169.182L314.544,169.182L314.544,147.182L322.541,147.182L322.541,169.182ZM306.545,169.182L298.572,169.182L298.572,147.182L306.545,147.182L306.545,169.182ZM290.6,169.182L282.627,169.182L282.627,147.182L290.6,147.182L290.6,169.182ZM274.655,169.182L266.682,169.182L266.682,147.182L274.655,147.182L274.655,169.182ZM593.542,169.181L585.569,169.181L585.569,147.181L593.542,147.181L593.542,169.181ZM561.653,169.181L553.68,169.181L553.68,147.181L561.653,147.181L561.653,169.181ZM482.078,169.181L474.12,169.181L474.12,147.181L482.078,147.181L482.078,169.181ZM402.406,169.181L394.428,169.181L394.428,147.181L402.406,147.181L402.406,169.181ZM370.482,169.181L362.496,169.181L362.496,147.181L370.482,147.181L370.482,169.181ZM354.509,169.181L346.519,169.181L346.519,147.181L354.509,147.181L354.509,169.181ZM338.529,169.181L330.536,169.181L330.536,147.181L338.529,147.181L338.529,169.181ZM625.423,169.18L617.459,169.18L617.459,147.18L625.423,147.18L625.423,169.18ZM609.487,169.18L601.514,169.18L601.514,147.18L609.487,147.18L609.487,169.18ZM577.597,169.18L569.624,169.18L569.624,147.18L577.597,147.18L577.597,169.18ZM545.708,169.18L537.735,169.18L537.735,147.18L545.708,147.18L545.708,169.18ZM529.791,169.18L521.843,169.18L521.843,147.18L529.791,147.18L529.791,169.18ZM513.894,169.18L505.943,169.18L505.943,147.18L513.894,147.18L513.894,169.18ZM497.99,169.18L490.035,169.18L490.035,147.18L497.99,147.18L497.99,169.18ZM466.159,169.18L458.196,169.18L458.196,147.18L466.159,147.18L466.159,169.18ZM450.232,169.18L442.266,169.18L442.266,147.18L450.232,147.18L450.232,169.18ZM434.298,169.18L426.328,169.18L426.328,147.18L434.298,147.18L434.298,169.18ZM418.356,169.18L410.382,169.18L410.382,147.18L418.356,147.18L418.356,169.18ZM386.448,169.18L378.466,169.18L378.466,147.18L386.448,147.18L386.448,169.18Z" style="fill:black;fill-rule:nonzero;"/>
                <rect id="XMLID_2575_" x="633.07" y="147.18" width="4" height="22" style="fill:black;"/>
            </g>
            <g id="XMLID_1785_" transform="matrix(1.15846,0,0,1.14536,-2302.88,-25.1978)">
                <g id="XMLID_2574_" transform="matrix(0.000710205,1,-1,0.000710205,949.672,-634.018)">
                    <rect x="781.07" y="156.163" width="22" height="4.002" style="fill:black;"/>
                </g>
                <path id="XMLID_2470_" d="M1147.8,769.317L1146.06,769.317L1146.06,747.317L1147.8,747.317C1149.8,747.317 1151.72,747.273 1153.52,747.186L1154.58,769.161C1152.43,769.265 1150.15,769.317 1147.8,769.317ZM1138.08,769.317L1130.09,769.316L1130.09,747.316L1138.08,747.317L1138.08,769.317ZM1122.1,769.315L1114.12,769.314L1114.12,747.314L1122.1,747.315L1122.1,769.315ZM1106.12,769.312L1098.14,769.31L1098.14,747.31L1106.1,747.312L1106.12,769.312ZM1090.15,769.308L1082.16,769.305L1082.17,747.305L1090.16,747.308L1090.15,769.308ZM1074.18,769.301L1066.17,769.297L1066.18,747.297L1074.19,747.301L1074.18,769.301ZM1058.17,769.292L1050.17,769.288L1050.18,747.288L1058.17,747.292L1058.17,769.292ZM1042.17,769.283L1034.19,769.278L1034.19,747.278L1042.17,747.283L1042.17,769.283ZM1026.2,769.272L1018.22,769.266L1018.24,747.266L1026.22,747.272L1026.2,769.272ZM1010.25,769.261L1002.28,769.255L1002.3,747.255L1010.26,747.261L1010.25,769.261ZM994.295,769.248L994.304,758.248L994.295,769.248ZM994.26,769.248L986.305,769.241L986.329,747.241L994.276,747.248L994.303,758.248L994.26,769.248ZM978.322,769.235L978.33,758.235L978.322,769.235ZM978.272,769.235L970.332,769.228L970.356,747.228L978.289,747.235L978.33,758.235L978.272,769.235ZM962.35,769.222L962.358,758.222L962.35,769.222ZM962.288,769.222L954.359,769.215L954.383,747.215L962.304,747.222L962.357,758.222L962.288,769.222ZM946.377,769.207L946.385,758.207L946.377,769.207ZM946.304,769.207L938.386,769.2L938.41,747.2L946.319,747.207L946.384,758.207L946.304,769.207ZM930.403,769.192L930.412,758.192L930.403,769.192ZM930.321,769.192L922.413,769.185L922.437,747.185L930.337,747.192L930.411,758.192L930.321,769.192ZM914.43,769.179L914.439,758.179L914.43,769.179ZM914.336,769.179L906.44,769.172L906.464,747.172L914.353,747.179L914.439,758.179L914.336,769.179ZM898.456,769.164L898.465,758.164L898.456,769.164ZM898.356,769.164L890.465,769.157L890.489,747.157L898.372,747.164L898.464,758.164L898.356,769.164ZM882.482,769.15L874.491,769.143L874.515,747.143L882.498,747.15L882.482,769.15ZM866.509,769.136L858.518,769.129L858.542,747.129L866.525,747.136L866.509,769.136ZM850.534,769.123L842.542,769.116L842.566,747.116L850.55,747.123L850.534,769.123ZM1163.52,768.353L1160.48,746.564C1162.8,746.24 1164.88,745.806 1166.64,745.277L1172.96,766.351C1170.12,767.2 1166.95,767.873 1163.52,768.353ZM1182.91,761.952L1171.27,743.284C1172.48,742.531 1173.38,741.694 1174.17,740.902L1174.72,740.345L1175.35,739.873C1175.81,739.529 1176.18,739.29 1177.7,738.369L1187.19,753.925L1189.72,756.458C1189.53,756.653 1189.32,756.855 1189.11,757.065L1189.16,757.147C1189.02,757.228 1188.9,757.304 1188.79,757.374C1187.34,758.754 1185.43,760.378 1182.91,761.952ZM1195.98,753.029L1184.64,734.177C1186.65,732.965 1188.97,731.573 1191.53,730.04L1202.84,748.911C1200.29,750.438 1197.98,751.823 1195.98,753.029ZM1209.71,744.797L1198.41,725.918L1205.3,721.802L1216.58,740.687L1209.71,744.797ZM1223.45,736.579L1212.18,717.688L1219.06,713.581L1230.33,732.474L1223.45,736.579ZM1237.21,728.374L1225.95,709.476L1232.83,705.378L1244.09,724.278L1237.21,728.374ZM1250.97,720.184L1239.72,701.278L1246.61,697.179L1257.85,716.093L1250.97,720.184ZM1264.73,712.006L1253.51,693.082C1255.96,691.631 1258.28,690.26 1260.42,688.99L1271.62,707.929C1269.48,709.193 1267.17,710.561 1264.73,712.006ZM1278.5,703.87L1267.35,684.905C1270.58,683.009 1273.03,681.582 1274.42,680.783L1285.32,699.894C1283.97,700.664 1281.61,702.04 1278.5,703.87ZM1324.71,703.25C1322.11,702.801 1319.48,701.998 1316.43,701.068L1315.68,700.84L1322.08,679.791L1322.84,680.023C1323.64,680.268 1324.41,680.501 1325.12,680.71C1325.13,680.644 1325.14,680.576 1325.15,680.508L1346.82,684.332C1345.92,689.417 1344.71,692.972 1342.88,695.857L1327.65,686.229L1324.71,703.25ZM1308.53,698.825C1307.39,698.541 1306.3,698.292 1305.21,698.062C1304.31,697.873 1303.35,697.731 1302.35,697.641L1304.34,675.731C1306.18,675.898 1307.99,676.167 1309.72,676.529C1311.09,676.815 1312.44,677.126 1313.85,677.477L1308.53,698.825ZM1289.86,698.657L1285.1,677.178C1288.26,676.476 1291.41,675.99 1294.44,675.735L1296.29,697.657C1294.23,697.831 1292.07,698.168 1289.86,698.657ZM1347.95,675.564L1326.06,673.439C1326.27,671.272 1326.47,668.769 1326.67,665.788L1348.62,667.296C1348.4,670.486 1348.18,673.19 1347.95,675.564ZM1349.14,659.258L1327.18,657.881C1327.35,655.196 1327.52,652.55 1327.67,649.939L1349.63,651.261C1349.47,653.89 1349.31,656.556 1349.14,659.258ZM1350.1,643.259L1328.14,642.001C1328.29,639.319 1328.44,636.675 1328.58,634.063L1350.55,635.252C1350.4,637.888 1350.26,640.556 1350.1,643.259ZM1350.97,627.246L1329,626.125C1329.13,623.448 1329.26,620.804 1329.39,618.188L1351.36,619.233C1351.24,621.874 1351.11,624.544 1350.97,627.246ZM1351.73,611.217L1329.75,610.254C1329.87,607.582 1329.98,604.938 1330.08,602.316L1352.07,603.201C1351.96,605.848 1351.85,608.518 1351.73,611.217ZM1352.37,595.18L1330.39,594.383C1330.49,591.718 1330.58,589.073 1330.66,586.445L1352.65,587.16C1352.56,589.815 1352.47,592.487 1352.37,595.18ZM1352.9,579.139L1330.9,578.508C1330.98,575.852 1331.05,573.206 1331.12,570.568L1353.11,571.119C1353.04,573.784 1352.97,576.455 1352.9,579.139ZM1353.3,563.104L1331.3,562.631C1331.36,559.985 1331.41,557.338 1331.46,554.689L1353.45,555.084C1353.41,557.76 1353.35,560.432 1353.3,563.104ZM1353.59,547.059L1331.59,546.735C1331.63,544.094 1331.66,541.445 1331.69,538.782L1353.69,539.048C1353.66,541.729 1353.63,544.398 1353.59,547.059ZM1353.78,531.035L1331.78,530.828C1331.81,528.194 1331.83,525.543 1331.85,522.868L1353.85,523.028C1353.83,525.719 1353.81,528.386 1353.78,531.035ZM1353.9,515.024L1331.9,514.905C1331.91,512.277 1331.92,509.623 1331.93,506.939L1353.93,507.023C1353.92,509.719 1353.91,512.385 1353.9,515.024ZM1353.96,499.028L1331.96,498.967L1331.98,490.995L1353.98,491.03L1353.96,499.028ZM1353.98,483.04L1331.98,483.019L1331.99,475.04L1353.99,475.048L1353.98,483.04ZM1353.99,467.061L1331.99,467.061L1331.99,459.076L1353.99,459.076L1353.99,467.061ZM1353.99,451.086L1331.99,451.086L1331.99,443.103L1353.99,443.099L1353.99,451.086ZM1331.99,435.128L1331.98,427.158L1353.98,427.129L1353.99,435.116L1331.99,435.128ZM1331.97,419.189C1331.96,416.476 1331.95,413.826 1331.95,411.227L1353.95,411.149C1353.96,413.757 1353.96,416.418 1353.97,419.142L1331.97,419.189ZM1331.91,403.271C1331.9,400.579 1331.88,397.932 1331.86,395.32L1353.86,395.156C1353.88,397.784 1353.9,400.447 1353.91,403.156L1331.91,403.271ZM1331.79,387.373C1331.76,384.71 1331.73,382.067 1331.7,379.433L1353.7,379.14C1353.73,381.798 1353.76,384.462 1353.79,387.149L1331.79,387.373ZM1331.58,371.496C1331.54,368.863 1331.49,366.223 1331.43,363.558L1353.43,363.12C1353.49,365.808 1353.53,368.474 1353.58,371.13L1331.58,371.496ZM1331.26,355.623C1331.2,353.016 1331.14,350.374 1331.07,347.684L1353.06,347.1C1353.13,349.813 1353.2,352.477 1353.26,355.106L1331.26,355.623ZM1330.84,339.745C1330.77,337.151 1330.68,334.507 1330.6,331.799L1352.59,331.092C1352.67,333.818 1352.76,336.482 1352.83,339.093L1330.84,339.745ZM1330.33,323.854C1330.24,321.266 1330.15,318.618 1330.05,315.902L1352.03,315.097C1352.13,317.828 1352.23,320.491 1352.32,323.092L1330.33,323.854ZM1329.75,307.946C1329.65,305.358 1329.55,302.708 1329.44,299.99L1351.42,299.115C1351.53,301.844 1351.63,304.507 1351.73,307.106L1329.75,307.946ZM1329.12,292.026L1328.79,284.064L1350.77,283.142L1351.1,291.129L1329.12,292.026ZM1328.45,276.101L1328.1,268.135L1350.08,267.176L1350.43,275.159L1328.45,276.101ZM1327.76,260.165L1327.4,252.197L1349.38,251.213L1349.73,259.196L1327.76,260.165ZM1326.8,245.248C1326.49,242.94 1326.06,240.956 1325.54,239.35L1346.45,232.541C1347.39,235.423 1348.09,238.596 1348.6,242.24L1326.8,245.248ZM1299.05,242.487C1296.97,242.487 1294.87,242.333 1292.79,242.029L1295.98,220.261C1297.75,220.518 1299.47,220.553 1301.22,220.374L1303.48,242.257C1302.01,242.41 1300.52,242.487 1299.05,242.487ZM1313.6,240.053L1306.68,219.168C1307.92,218.758 1309.21,218.245 1310.51,217.645C1311.61,217.138 1312.69,216.686 1313.75,216.298L1321.35,236.944C1320.84,237.13 1320.3,237.355 1319.74,237.615C1317.69,238.562 1315.62,239.383 1313.6,240.053ZM1282.86,239.448C1280.2,238.467 1277.41,237.211 1274.33,235.611L1284.46,216.084C1286.76,217.275 1288.68,218.144 1290.49,218.815L1282.86,239.448ZM1324.32,235.991L1326.47,214.419C1331.94,214.971 1336.8,217.47 1340.5,221.645L1324.32,235.991ZM1266.94,231.525L1266.7,231.384C1265.26,230.56 1263.81,229.73 1262.34,228.915C1261.55,228.482 1260.78,228.047 1260.01,227.606L1270.89,208.487C1271.59,208.884 1272.29,209.277 1272.99,209.665C1274.55,210.528 1276.09,211.411 1277.63,212.289L1277.87,212.429L1266.94,231.525ZM1252.81,223.337C1250.58,221.962 1248.29,220.513 1245.83,218.907L1257.84,200.471C1260.14,201.974 1262.27,203.325 1264.35,204.602L1252.81,223.337ZM1239.01,214.376C1236.78,212.868 1234.55,211.341 1232.32,209.802L1244.82,191.698C1246.99,193.196 1249.16,194.684 1251.33,196.153L1239.01,214.376ZM1225.73,205.229C1223.55,203.716 1221.37,202.204 1219.19,200.701L1231.68,182.588C1233.88,184.106 1236.08,185.635 1238.28,187.163L1225.73,205.229ZM1212.69,196.263C1210.38,194.705 1208.25,193.299 1206.19,191.965L1218.16,173.503C1220.33,174.91 1222.56,176.388 1224.98,178.021L1212.69,196.263ZM1199.67,187.85C1197.41,186.465 1195.21,185.163 1193.12,183.979L1203.97,164.84C1206.28,166.147 1208.7,167.577 1211.17,169.09L1199.67,187.85ZM1186.5,180.403C1185.87,180.08 1185.24,179.763 1184.6,179.451C1183.07,178.692 1181.49,177.962 1179.92,177.279L1188.68,157.098C1190.58,157.923 1192.48,158.805 1194.33,159.719C1195.06,160.079 1195.8,160.448 1196.53,160.824L1186.5,180.403ZM1173.18,174.625C1170.9,173.815 1168.6,173.09 1166.34,172.47L1172.15,151.253C1174.93,152.015 1177.76,152.903 1180.55,153.895L1173.18,174.625ZM1159.43,170.871C1157.1,170.433 1154.79,170.108 1152.56,169.906L1154.55,147.996C1157.46,148.262 1160.48,148.683 1163.49,149.25L1159.43,170.871ZM1145.52,169.645L1137.54,169.608L1137.63,147.608L1145.63,147.645L1145.52,169.645ZM1129.55,169.573L1121.57,169.539L1121.65,147.539L1129.64,147.573L1129.55,169.573ZM1113.58,169.506L1105.59,169.474L1105.68,147.474L1113.67,147.506L1113.58,169.506ZM1097.61,169.443L1089.62,169.414L1089.7,147.414L1097.69,147.443L1097.61,169.443ZM1081.64,169.387L1073.65,169.361L1073.72,147.361L1081.71,147.387L1081.64,169.387ZM1065.66,169.337L1057.68,169.314L1057.74,147.314L1065.73,147.337L1065.66,169.337ZM1049.69,169.291L1041.71,169.27L1041.76,147.27L1049.75,147.291L1049.69,169.291ZM1033.72,169.252L1025.74,169.234L1025.79,147.234L1033.77,147.252L1033.72,169.252ZM1017.75,169.219L1009.77,169.204L1009.81,147.204L1017.79,147.219L1017.75,169.219ZM1001.8,169.191L993.823,169.179L993.855,147.179L1001.83,147.191L1001.8,169.191ZM985.847,169.171L977.883,169.161L977.882,158.161L977.907,147.161L985.879,147.171L985.847,169.171ZM802.065,169.16L802.057,147.16L810.046,147.157L810.054,169.157L802.065,169.16ZM818.044,169.154L818.036,147.154L826.025,147.151L826.033,169.151L818.044,169.154ZM969.886,169.153L961.903,169.146L961.92,147.146L969.911,147.153L969.886,169.153ZM834.022,169.147L834.014,147.147L842.003,147.144L842.011,169.144L834.022,169.147ZM953.908,169.142L945.923,169.137L945.931,147.137L953.933,147.142L953.908,169.142ZM850,169.142L849.992,147.142L857.986,147.139L857.994,169.139L850,169.142ZM865.988,169.137L865.98,147.137L873.974,147.134L873.982,169.134L865.988,169.137ZM937.93,169.133L929.947,169.131L929.934,147.131L937.93,147.133L937.93,169.133ZM882.016,169.132L881.972,158.132L882.008,147.132L889.965,147.13L889.965,169.13L882.016,169.132ZM921.927,169.129L913.94,169.129L913.94,147.129L921.927,147.129L921.927,169.129ZM897.959,169.129L897.959,147.129L905.946,147.128L905.954,169.128L897.959,169.129ZM977.882,158.161L977.894,147.161L977.882,158.161Z" style="fill:black;fill-rule:nonzero;"/>
                <rect id="XMLID_1784_" x="830.306" y="747.109" width="4.002" height="22" style="fill:black;"/>
            </g>
            <g id="XMLID_1779_" transform="matrix(1.15846,0,0,1.14536,-2302.88,-25.1978)">
                <path id="XMLID_1782_" d="M234.976,332.105L286.815,332.105L286.815,346.796L254.374,346.796L254.374,363.859L278.648,363.859L278.648,378.55L254.374,378.55L254.374,411.435L234.977,411.435L234.977,332.105L234.976,332.105Z" style="fill:black;fill-rule:nonzero;"/>
                <path id="XMLID_2390_" d="M347.273,346.57L318.461,346.57L318.461,363.634L343.87,363.634L343.87,378.324L318.461,378.324L318.461,396.745L347.273,396.745L347.273,411.435L299.063,411.435L299.063,331.88L347.273,331.88L347.273,346.57Z" style="fill:black;fill-rule:nonzero;"/>
                <path id="XMLID_2392_" d="M420.89,387.818C420.89,400.926 409.093,412.227 391.511,412.227C373.362,412.227 361.111,403.638 361.111,387.479L381.756,387.479C382.323,394.259 385.953,396.971 391.512,396.971C397.07,396.971 400.473,393.807 400.473,388.948C400.473,373.24 361.112,383.184 361.112,355.386C361.112,340.242 374.043,330.976 390.151,330.976C406.712,330.976 419.19,337.531 419.643,355.16L398.544,355.16C397.977,349.284 394.461,346.232 389.923,346.232C385.386,346.232 381.529,348.379 381.529,354.03C381.528,370.302 420.89,359.453 420.89,387.818Z" style="fill:black;fill-rule:nonzero;"/>
                <path id="XMLID_2394_" d="M429.621,332.105L492.464,332.105L492.464,346.796L470.685,346.796L470.685,411.436L451.288,411.436L451.288,346.796L429.622,346.796L429.622,332.105L429.621,332.105Z" style="fill:black;fill-rule:nonzero;"/>
                <path id="XMLID_2396_" d="M542.258,398.102L513.673,398.102L509.249,411.437L488.603,411.437L516.281,331.88L539.876,331.88L567.44,411.437L546.681,411.437L542.258,398.102ZM537.38,383.411L527.965,355.159L518.55,383.411L537.38,383.411Z" style="fill:black;fill-rule:nonzero;"/>
                <path id="XMLID_2399_" d="M680.304,371.771C680.304,395.276 662.04,411.436 636.745,411.436L608.726,411.436L608.726,332.105L636.745,332.105C662.04,332.105 680.304,348.153 680.304,371.771ZM636.745,396.746C651.718,396.746 660.565,386.914 660.565,371.771C660.565,356.627 651.717,346.796 636.745,346.796L628.124,346.796L628.124,396.745L636.745,396.745L636.745,396.746Z" style="fill:black;fill-rule:nonzero;"/>
                <path id="XMLID_2402_" d="M737.586,398.102L709,398.102L704.576,411.437L683.931,411.437L711.609,331.88L735.203,331.88L762.767,411.437L742.01,411.437L737.586,398.102ZM732.708,383.411L723.293,355.159L713.878,383.411L732.708,383.411Z" style="fill:black;fill-rule:nonzero;"/>
                <path id="XMLID_2405_" d="M829.238,387.818C829.238,400.926 817.441,412.227 799.859,412.227C781.71,412.227 769.459,403.638 769.459,387.479L790.104,387.479C790.671,394.259 794.301,396.971 799.86,396.971C805.418,396.971 808.821,393.807 808.821,388.948C808.821,373.24 769.46,383.184 769.46,355.386C769.46,340.242 782.391,330.976 798.499,330.976C815.06,330.976 827.538,337.531 827.991,355.16L806.892,355.16C806.325,349.284 802.809,346.232 798.271,346.232C793.734,346.232 789.877,348.379 789.877,354.03C789.877,370.302 829.238,359.453 829.238,387.818Z" style="fill:black;fill-rule:nonzero;"/>
                <path id="XMLID_2407_" d="M895.706,332.105L895.706,396.746L919.867,396.746L919.867,411.436L876.308,411.436L876.308,332.105L895.706,332.105Z" style="fill:black;fill-rule:nonzero;"/>
                <path id="XMLID_2409_" d="M980.212,398.102L951.626,398.102L947.202,411.437L926.557,411.437L954.235,331.88L977.829,331.88L1005.39,411.437L984.635,411.437L980.212,398.102ZM975.334,383.411L965.919,355.159L956.504,383.411L975.334,383.411Z" style="fill:black;fill-rule:nonzero;"/>
                <path id="XMLID_2412_" d="M1003.8,332.105L1066.65,332.105L1066.65,346.796L1044.87,346.796L1044.87,411.436L1025.47,411.436L1025.47,346.796L1003.81,346.796L1003.81,332.105L1003.8,332.105Z" style="fill:black;fill-rule:nonzero;"/>
                <path id="XMLID_2414_" d="M1116.44,398.102L1087.86,398.102L1083.43,411.437L1062.79,411.437L1090.46,331.88L1114.06,331.88L1141.62,411.437L1120.86,411.437L1116.44,398.102ZM1111.56,383.411L1102.15,355.159L1092.73,383.411L1111.56,383.411Z" style="fill:black;fill-rule:nonzero;"/>
                <path id="XMLID_2417_" d="M1208.09,387.818C1208.09,400.926 1196.3,412.227 1178.71,412.227C1160.57,412.227 1148.32,403.638 1148.32,387.479L1168.96,387.479C1169.53,394.259 1173.16,396.971 1178.72,396.971C1184.27,396.971 1187.68,393.807 1187.68,388.948C1187.68,373.24 1148.32,383.184 1148.32,355.386C1148.32,340.242 1161.25,330.976 1177.36,330.976C1193.92,330.976 1206.39,337.531 1206.85,355.16L1185.75,355.16C1185.18,349.284 1181.66,346.232 1177.13,346.232C1172.59,346.232 1168.73,348.379 1168.73,354.03C1168.73,370.302 1208.09,359.453 1208.09,387.818Z" style="fill:black;fill-rule:nonzero;"/>
                <path id="XMLID_2419_" d="M265.931,506.437L261.55,500.171C258.794,504.113 253.988,506.93 248.548,506.93C239.644,506.93 232.507,499.889 232.507,491.018C232.507,483.274 237.525,477.289 243.672,475.881C241.27,472.22 240.351,469.756 240.351,467.152C240.351,460.604 245.297,454.339 254.837,454.339C264.376,454.339 269.464,460.111 269.464,465.885C269.464,467.574 269.11,469.123 268.475,470.391L257.028,470.391C257.522,469.617 257.805,468.631 257.805,467.645C257.805,465.815 256.604,464.618 254.837,464.618C253.141,464.618 252.01,466.026 252.01,467.434C252.01,468.702 252.364,469.546 253.423,470.955L279.852,506.438L265.931,506.438L265.931,506.437ZM254.695,490.877C254.695,487.568 251.939,484.893 248.618,484.893C245.226,484.893 242.541,487.569 242.541,490.877C242.541,494.257 245.227,497.002 248.618,497.002C251.939,497.002 254.695,494.257 254.695,490.877Z" style="fill:black;fill-rule:nonzero;"/>
                <rect id="XMLID_2422_" x="303.528" y="457.013" width="12.083" height="49.424" style="fill:black;fill-rule:nonzero;"/>
                <path id="XMLID_2424_" d="M381.684,457.013L381.684,506.437L369.6,506.437L369.6,478.557L358.082,506.437L349.107,506.437L337.589,478.557L337.589,506.437L325.505,506.437L325.505,457.013L339.356,457.013L353.629,491.089L367.832,457.013L381.684,457.013Z" style="fill:black;fill-rule:nonzero;"/>
                <path id="XMLID_2426_" d="M411.154,487.216L403.664,487.216L403.664,506.437L391.581,506.437L391.581,457.013L411.154,457.013C423.308,457.013 429.385,464.335 429.385,472.15C429.386,477.853 425.711,487.216 411.154,487.216ZM411.154,478.063C414.829,478.063 417.09,475.669 417.09,472.149C417.09,468.7 414.829,466.165 411.154,466.165L403.664,466.165L403.664,478.063L411.154,478.063Z" style="fill:black;fill-rule:nonzero;"/>
                <path id="XMLID_2429_" d="M458.502,456.309C472.635,456.309 483.87,466.729 483.87,481.584C483.87,496.439 472.563,506.93 458.502,506.93C444.44,506.93 433.063,496.44 433.063,481.584C433.063,466.728 444.439,456.309 458.502,456.309ZM458.502,467.362C450.517,467.362 445.358,472.924 445.358,481.584C445.358,490.173 450.516,495.806 458.502,495.806C466.416,495.806 471.574,490.173 471.574,481.584C471.574,472.924 466.416,467.362 458.502,467.362Z" style="fill:black;fill-rule:nonzero;"/>
                <path id="XMLID_2432_" d="M527.12,491.722C527.12,499.889 519.77,506.93 508.818,506.93C497.511,506.93 489.88,501.579 489.88,491.511L502.741,491.511C503.095,495.736 505.355,497.425 508.818,497.425C512.28,497.425 514.4,495.453 514.4,492.426C514.4,482.64 489.879,488.836 489.879,471.517C489.879,462.082 497.935,456.309 507.969,456.309C518.286,456.309 526.059,460.393 526.342,471.375L513.198,471.375C512.844,467.714 510.654,465.813 507.828,465.813C505.001,465.813 502.599,467.151 502.599,470.67C502.6,480.81 527.12,474.051 527.12,491.722Z" style="fill:black;fill-rule:nonzero;"/>
                <rect id="XMLID_2434_" x="535.955" y="457.013" width="12.084" height="49.424" style="fill:black;fill-rule:nonzero;"/>
                <path id="XMLID_2436_" d="M589.731,472.783C587.682,468.841 584.714,467.362 580.474,467.362C572.49,467.362 567.331,472.924 567.331,481.584C567.331,490.173 572.489,495.806 580.474,495.806C584.714,495.806 587.682,494.327 589.731,490.385L604.147,490.385C601.038,499.819 593.194,505.592 583.795,506.648L583.795,509.042C588.389,509.042 592.982,511.154 592.982,516.787C592.982,522.419 588.389,525.165 583.795,525.165L572.277,525.165L572.277,518.617L580.403,518.617C582.877,518.617 584.36,518.899 584.36,516.787C584.36,514.675 582.877,515.026 580.403,515.026L576.516,515.026L576.516,506.578C564.362,504.818 555.035,495.032 555.035,481.585C555.035,466.73 566.412,456.31 580.473,456.31C591.285,456.31 600.683,462.224 604.146,472.785L589.731,472.785L589.731,472.783Z" style="fill:black;fill-rule:nonzero;"/>
                <path id="XMLID_2438_" d="M639.978,498.129L622.17,498.129L619.414,506.437L606.554,506.437L623.796,456.873L638.493,456.873L655.665,506.437L642.733,506.437L639.978,498.129ZM644.924,442.791C643.723,450.184 640.331,453.211 635.526,453.211C631.287,453.211 629.096,450.043 626.269,450.043C624.644,450.043 623.513,451.028 623.16,453.211L617.366,453.211C618.567,445.818 621.959,442.791 626.764,442.791C631.003,442.791 633.194,445.959 636.021,445.959C637.646,445.959 638.777,444.974 639.059,442.791L644.924,442.791ZM636.939,488.977L631.074,471.375L625.209,488.977L636.939,488.977Z" style="fill:black;fill-rule:nonzero;"/>
                <path id="XMLID_2442_" d="M683.438,456.309C697.571,456.309 708.806,466.729 708.806,481.584C708.806,496.439 697.5,506.93 683.438,506.93C669.376,506.93 658,496.44 658,481.584C658,466.728 669.377,456.309 683.438,456.309ZM683.438,467.362C675.454,467.362 670.295,472.924 670.295,481.584C670.295,490.173 675.453,495.806 683.438,495.806C691.353,495.806 696.511,490.173 696.511,481.584C696.512,472.924 691.354,467.362 683.438,467.362Z" style="fill:black;fill-rule:nonzero;"/>
                <path id="XMLID_2445_" d="M780.959,481.725C780.959,496.37 769.582,506.437 753.824,506.437L736.37,506.437L736.37,457.013L753.824,457.013C769.582,457.013 780.959,467.011 780.959,481.725ZM753.824,497.284C763.151,497.284 768.663,491.159 768.663,481.724C768.663,472.29 763.151,466.164 753.824,466.164L748.454,466.164L748.454,497.283L753.824,497.283L753.824,497.284Z" style="fill:black;fill-rule:nonzero;"/>
                <path id="XMLID_2448_" d="M817.92,466.024L799.972,466.024L799.972,476.655L815.8,476.655L815.8,485.808L799.972,485.808L799.972,497.284L817.92,497.284L817.92,506.436L787.888,506.436L787.888,456.872L817.92,456.872L817.92,466.024Z" style="fill:black;fill-rule:nonzero;"/>
                <rect id="XMLID_2450_" x="848.096" y="457.013" width="12.084" height="49.424" style="fill:black;fill-rule:nonzero;"/>
                <path id="XMLID_2452_" d="M914.45,456.872L914.45,506.436L902.367,506.436L882.157,475.247L882.157,506.436L870.074,506.436L870.074,456.872L882.157,456.872L902.367,488.061L902.367,456.872L914.45,456.872Z" style="fill:black;fill-rule:nonzero;"/>
                <path id="XMLID_2454_" d="M960.527,491.722C960.527,499.889 953.177,506.93 942.225,506.93C930.918,506.93 923.287,501.579 923.287,491.511L936.148,491.511C936.502,495.736 938.762,497.425 942.225,497.425C945.687,497.425 947.807,495.453 947.807,492.426C947.807,482.64 923.286,488.836 923.286,471.517C923.286,462.082 931.342,456.309 941.376,456.309C951.693,456.309 959.466,460.393 959.749,471.375L946.605,471.375C946.251,467.714 944.061,465.813 941.235,465.813C938.408,465.813 936.006,467.151 936.006,470.67C936.007,480.81 960.527,474.051 960.527,491.722Z" style="fill:black;fill-rule:nonzero;"/>
                <path id="XMLID_2456_" d="M983.637,437.722L983.637,447.086L966.608,454.196L966.608,445.888L983.637,437.722ZM969.363,457.013L981.446,457.013L981.446,506.437L969.363,506.437L969.363,457.013Z" style="fill:black;fill-rule:nonzero;"/>
                <path id="XMLID_2459_" d="M1013.88,456.309C1024.69,456.309 1034.09,462.223 1037.56,472.784L1023.14,472.784C1021.09,468.842 1018.12,467.363 1013.88,467.363C1005.9,467.363 1000.74,472.925 1000.74,481.585C1000.74,490.174 1005.9,495.807 1013.88,495.807C1019.89,495.807 1023.35,492.427 1024.55,487.921L1010.56,487.921L1010.56,478.769L1037.56,478.769L1037.56,487.921C1035.93,496.299 1027.24,506.86 1013.88,506.86C999.821,506.86 988.444,496.44 988.444,481.585C988.444,466.73 999.82,456.309 1013.88,456.309Z" style="fill:black;fill-rule:nonzero;"/>
                <path id="XMLID_2461_" d="M1089,456.872L1089,506.436L1076.92,506.436L1056.71,475.247L1056.71,506.436L1044.62,506.436L1044.62,456.872L1056.71,456.872L1076.92,488.061L1076.92,456.872L1089,456.872Z" style="fill:black;fill-rule:nonzero;"/>
                <rect id="XMLID_2463_" x="1098.9" y="457.013" width="12.084" height="49.424" style="fill:black;fill-rule:nonzero;"/>
                <path id="XMLID_2465_" d="M1149.64,498.129L1131.83,498.129L1129.07,506.437L1116.21,506.437L1133.45,456.873L1148.15,456.873L1165.32,506.437L1152.39,506.437L1149.64,498.129ZM1146.6,488.977L1140.73,471.375L1134.87,488.977L1146.6,488.977Z" style="fill:black;fill-rule:nonzero;"/>
                <path id="XMLID_2468_" d="M1206.74,491.722C1206.74,499.889 1199.39,506.93 1188.43,506.93C1177.13,506.93 1169.5,501.579 1169.5,491.511L1182.36,491.511C1182.71,495.736 1184.97,497.425 1188.43,497.425C1191.9,497.425 1194.02,495.453 1194.02,492.426C1194.02,482.64 1169.5,488.836 1169.5,471.517C1169.5,462.082 1177.55,456.309 1187.59,456.309C1197.9,456.309 1205.67,460.393 1205.96,471.375L1192.81,471.375C1192.46,467.714 1190.27,465.813 1187.44,465.813C1184.62,465.813 1182.21,467.151 1182.21,470.67C1182.22,480.81 1206.74,474.051 1206.74,491.722Z" style="fill:black;fill-rule:nonzero;"/>
            </g>
            <g id="XMLID_1777_" transform="matrix(1.15846,0,0,1.14536,-2302.88,-25.1978)">
                <path id="XMLID_1804_" d="M244.907,599.488C250.13,599.488 254.669,602.343 256.342,607.443L249.379,607.443C248.389,605.539 246.955,604.825 244.907,604.825C241.05,604.825 238.558,607.511 238.558,611.692C238.558,615.839 241.05,618.559 244.907,618.559C246.955,618.559 248.388,617.845 249.379,615.942L256.342,615.942C254.669,621.042 250.13,623.897 244.907,623.897C238.115,623.897 232.619,618.866 232.619,611.692C232.619,604.52 238.115,599.488 244.907,599.488Z" style="fill:black;fill-rule:nonzero;"/>
                <path id="XMLID_1806_" d="M271.665,599.488C278.492,599.488 283.919,604.519 283.919,611.692C283.919,618.866 278.458,623.931 271.665,623.931C264.872,623.931 259.377,618.866 259.377,611.692C259.377,604.52 264.873,599.488 271.665,599.488ZM271.665,604.825C267.808,604.825 265.316,607.511 265.316,611.692C265.316,615.839 267.808,618.559 271.665,618.559C275.488,618.559 277.98,615.839 277.98,611.692C277.98,607.511 275.488,604.825 271.665,604.825Z" style="fill:black;fill-rule:nonzero;"/>
                <rect id="XMLID_2217_" x="288.353" y="599.828" width="5.837" height="23.865" style="fill:black;fill-rule:nonzero;"/>
                <path id="XMLID_2348_" d="M327.127,599.828L327.127,623.693L321.29,623.693L321.29,610.23L315.727,623.693L311.392,623.693L305.828,610.23L305.828,623.693L299.991,623.693L299.991,599.828L306.681,599.828L313.576,616.282L320.437,599.828L327.127,599.828Z" style="fill:black;fill-rule:nonzero;"/>
                <path id="XMLID_2350_" d="M343.337,599.828C348.355,599.828 351.324,602.581 351.324,606.083C351.324,608.871 349.515,610.673 346.579,611.557C349.89,612.033 351.87,614.582 351.87,617.472C351.87,621.246 348.969,623.694 343.917,623.694L332.926,623.694L332.926,599.829L343.337,599.829L343.337,599.828ZM338.763,609.415L342.586,609.415C344.19,609.415 345.385,608.633 345.385,606.865C345.385,605.097 344.19,604.247 342.586,604.247L338.763,604.247L338.763,609.415ZM343.167,619.273C344.737,619.273 345.932,618.288 345.932,616.587C345.932,614.854 344.771,613.833 343.236,613.833L338.764,613.833L338.764,619.272L343.167,619.272L343.167,619.273Z" style="fill:black;fill-rule:nonzero;"/>
                <path id="XMLID_2354_" d="M368.525,623.693L363.132,614.412L362.449,614.412L362.449,623.693L356.612,623.693L356.612,599.828L366.067,599.828C371.938,599.828 374.874,603.363 374.874,607.137C374.874,609.381 373.713,612.781 369.481,613.971L375.352,623.694L368.525,623.694L368.525,623.693ZM362.449,609.993L366.067,609.993C367.842,609.993 368.934,608.837 368.934,607.137C368.934,605.471 367.842,604.247 366.067,604.247L362.449,604.247L362.449,609.993Z" style="fill:black;fill-rule:nonzero;"/>
                <path id="XMLID_2357_" d="M393.986,619.682L385.384,619.682L384.053,623.694L377.841,623.694L386.17,599.76L393.27,599.76L401.564,623.694L395.317,623.694L393.986,619.682ZM392.519,615.262L389.686,606.763L386.853,615.262L392.519,615.262Z" style="fill:black;fill-rule:nonzero;"/>
                <path id="XMLID_2360_" d="M957.972,599.488C964.799,599.488 970.226,604.519 970.226,611.692C970.226,618.866 964.765,623.931 957.972,623.931C951.18,623.931 945.684,618.866 945.684,611.692C945.684,604.52 951.18,599.488 957.972,599.488ZM957.972,604.825C954.116,604.825 951.623,607.511 951.623,611.692C951.623,615.839 954.115,618.559 957.972,618.559C961.795,618.559 964.287,615.839 964.287,611.692C964.287,607.511 961.795,604.825 957.972,604.825Z" style="fill:black;fill-rule:nonzero;"/>
                <path id="XMLID_2363_" d="M974.558,599.828L980.395,599.828L980.395,614.072C980.395,616.894 981.794,618.525 984.559,618.525C987.324,618.525 988.791,616.894 988.791,614.072L988.791,599.828L994.628,599.828L994.628,614.072C994.628,620.668 989.61,623.931 984.456,623.931C979.268,623.931 974.558,620.667 974.558,614.072L974.558,599.828L974.558,599.828Z" style="fill:black;fill-rule:nonzero;"/>
                <path id="XMLID_2365_" d="M998.652,599.828L1017.56,599.828L1017.56,604.247L1011.01,604.247L1011.01,623.693L1005.17,623.693L1005.17,604.247L998.651,604.247L998.651,599.828L998.652,599.828Z" style="fill:black;fill-rule:nonzero;"/>
                <path id="XMLID_2367_" d="M1021.62,599.828L1027.46,599.828L1027.46,614.072C1027.46,616.894 1028.86,618.525 1031.62,618.525C1034.39,618.525 1035.86,616.894 1035.86,614.072L1035.86,599.828L1041.69,599.828L1041.69,614.072C1041.69,620.668 1036.67,623.931 1031.52,623.931C1026.33,623.931 1021.62,620.667 1021.62,614.072L1021.62,599.828Z" style="fill:black;fill-rule:nonzero;"/>
                <path id="XMLID_2369_" d="M1057.77,599.828C1062.79,599.828 1065.75,602.581 1065.75,606.083C1065.75,608.871 1063.94,610.673 1061.01,611.557C1064.32,612.033 1066.3,614.582 1066.3,617.472C1066.3,621.246 1063.4,623.694 1058.35,623.694L1047.36,623.694L1047.36,599.829L1057.77,599.829L1057.77,599.828ZM1053.19,609.415L1057.02,609.415C1058.62,609.415 1059.81,608.633 1059.81,606.865C1059.81,605.097 1058.62,604.247 1057.02,604.247L1053.19,604.247L1053.19,609.415ZM1057.6,619.273C1059.17,619.273 1060.36,618.288 1060.36,616.587C1060.36,614.854 1059.2,613.833 1057.66,613.833L1053.19,613.833L1053.19,619.272L1057.6,619.272L1057.6,619.273Z" style="fill:black;fill-rule:nonzero;"/>
                <path id="XMLID_2373_" d="M1082.95,623.693L1077.56,614.412L1076.88,614.412L1076.88,623.693L1071.04,623.693L1071.04,599.828L1080.5,599.828C1086.37,599.828 1089.3,603.363 1089.3,607.137C1089.3,609.381 1088.14,612.781 1083.91,613.971L1089.78,623.694L1082.95,623.694L1082.95,623.693ZM1076.88,609.993L1080.5,609.993C1082.27,609.993 1083.36,608.837 1083.36,607.137C1083.36,605.471 1082.27,604.247 1080.5,604.247L1076.88,604.247L1076.88,609.993Z" style="fill:black;fill-rule:nonzero;"/>
                <path id="XMLID_2376_" d="M1105.41,599.488C1112.24,599.488 1117.67,604.519 1117.67,611.692C1117.67,618.866 1112.2,623.931 1105.41,623.931C1098.62,623.931 1093.12,618.866 1093.12,611.692C1093.12,604.52 1098.62,599.488 1105.41,599.488ZM1105.41,604.825C1101.56,604.825 1099.06,607.511 1099.06,611.692C1099.06,615.839 1101.55,618.559 1105.41,618.559C1109.24,618.559 1111.73,615.839 1111.73,611.692C1111.73,607.511 1109.24,604.825 1105.41,604.825Z" style="fill:black;fill-rule:nonzero;"/>
                <path id="XMLID_2379_" d="M1131.79,619.036C1137.08,614.345 1142.58,610.469 1142.58,606.661C1142.58,604.757 1141.69,603.771 1140.02,603.771C1138.41,603.771 1137.36,604.927 1137.36,607.136L1131.72,607.136C1131.72,601.357 1135.65,598.875 1140.05,598.875C1145.96,598.875 1148.48,602.614 1148.48,606.354C1148.48,611.521 1143.84,615.09 1140.05,618.626L1148.93,618.626L1148.93,623.352L1131.79,623.352L1131.79,619.036L1131.79,619.036Z" style="fill:black;fill-rule:nonzero;"/>
                <path id="XMLID_2381_" d="M1171.35,611.318C1171.35,618.288 1168.86,623.591 1161.76,623.591C1154.66,623.591 1152.17,618.287 1152.17,611.318C1152.17,604.349 1154.66,599.046 1161.76,599.046C1168.86,599.046 1171.35,604.35 1171.35,611.318ZM1157.9,611.318C1157.9,614.888 1158.31,618.152 1161.76,618.152C1165.21,618.152 1165.62,614.888 1165.62,611.318C1165.62,607.749 1165.21,604.485 1161.76,604.485C1158.31,604.485 1157.9,607.749 1157.9,611.318Z" style="fill:black;fill-rule:nonzero;"/>
                <path id="XMLID_2384_" d="M1178.65,604.961L1174.52,604.961L1174.52,599.556L1184.69,599.556L1184.69,623.694L1178.65,623.694L1178.65,604.961Z" style="fill:black;fill-rule:nonzero;"/>
                <path id="XMLID_2386_" d="M1202.48,605.369C1202.2,604.077 1201.38,603.057 1199.61,603.057C1197.12,603.057 1195.86,605.13 1195.82,609.449C1197.02,607.919 1199.27,607.375 1200.94,607.375C1205.34,607.375 1208.55,610.196 1208.55,615.364C1208.55,620.464 1205.31,623.693 1200.19,623.693C1193.5,623.693 1190.63,619.784 1190.63,611.114C1190.63,602.718 1193.46,598.298 1199.71,598.298C1205.07,598.298 1207.46,601.766 1207.9,605.369L1202.48,605.369L1202.48,605.369ZM1196.26,615.5C1196.26,617.71 1197.9,618.968 1199.71,618.968C1201.83,618.968 1202.89,617.506 1202.89,615.569C1202.89,613.937 1201.96,612.17 1199.54,612.17C1197.56,612.169 1196.26,613.393 1196.26,615.5Z" style="fill:black;fill-rule:nonzero;"/>
            </g>
            <g id="XMLID_1770_" transform="matrix(1.15846,0,0,1.14536,-2302.88,-25.1978)">
                <path id="XMLID_7_" d="M650.462,699.908C624.14,699.908 602.726,674.545 602.726,643.369C602.726,612.193 624.141,586.83 650.462,586.83C676.784,586.83 698.198,612.193 698.198,643.369C698.198,674.545 676.784,699.908 650.462,699.908ZM650.462,611.882C638.166,611.882 627.778,626.302 627.778,643.368C627.778,660.435 638.166,674.855 650.462,674.855C662.758,674.855 673.147,660.435 673.147,643.368C673.146,626.302 662.758,611.882 650.462,611.882Z" style="fill:black;fill-rule:nonzero;"/>
                <path id="XMLID_2673_" d="M650.392,824.924C643.474,824.924 638,819.317 638,812.398L638,687.137C638,680.219 641.581,674.611 648.5,674.611C655.419,674.611 661,680.218 661,687.137L661,812.398C661,819.316 657.311,824.924 650.392,824.924Z" style="fill:black;fill-rule:nonzero;"/>
            </g>
            <g id="XMLID_1491_" transform="matrix(1.15846,0,0,1.14536,-2302.88,-25.1978)">
                <ellipse id="XMLID_8_" cx="774.878" cy="643.369" rx="45.427" ry="56.784" style="fill:black;"/>
                <path id="XMLID_9_" d="M774,824.924C767.081,824.924 763,819.317 763,812.398L763,687.137C763,680.219 767.081,674.611 774,674.611C780.919,674.611 785,680.218 785,687.137L785,812.398C785,819.316 780.919,824.924 774,824.924Z" style="fill:black;fill-rule:nonzero;"/>
            </g>
            <g id="XMLID_1_" transform="matrix(1.15846,0,0,1.14536,-2302.88,-25.1978)">
                <path id="XMLID_21_" d="M652.862,121.499C630.952,121.499 613.126,103.672 613.126,81.76C613.126,59.85 630.952,42.024 652.862,42.024C674.774,42.024 692.601,59.85 692.601,81.76C692.602,103.672 674.774,121.499 652.862,121.499ZM652.862,65.77C644.045,65.77 636.873,72.943 636.873,81.76C636.873,90.577 644.045,97.752 652.862,97.752C661.679,97.752 668.854,90.577 668.854,81.76C668.854,72.943 661.68,65.77 652.862,65.77Z" style="fill:black;fill-rule:nonzero;"/>
                <path id="XMLID_22_" d="M774.27,121.499C752.358,121.499 734.532,103.672 734.532,81.76C734.532,59.85 752.358,42.024 774.27,42.024C796.18,42.024 814.007,59.85 814.007,81.76C814.007,103.672 796.18,121.499 774.27,121.499ZM774.27,65.77C765.454,65.77 758.279,72.943 758.279,81.76C758.279,90.577 765.454,97.752 774.27,97.752C783.087,97.752 790.26,90.577 790.26,81.76C790.26,72.943 783.087,65.77 774.27,65.77Z" style="fill:black;fill-rule:nonzero;"/>
                <path id="XMLID_1362_" d="M780.128,267.71C776.518,267.71 772.953,266.071 770.62,262.961L667.857,107.835C663.921,102.589 664.986,95.147 670.231,91.212C675.477,87.277 682.919,88.341 686.854,93.587L789.617,248.713C793.553,253.959 792.488,261.401 787.242,265.336C785.106,266.938 782.606,267.71 780.128,267.71Z" style="fill:black;fill-rule:nonzero;"/>
                <path id="XMLID_1406_" d="M647.684,267.71C645.205,267.71 642.705,266.938 640.569,265.335C635.323,261.4 634.259,253.958 638.194,248.712L738.787,95.76C742.722,90.516 750.164,89.45 755.409,93.385C760.655,97.321 761.72,104.762 757.784,110.008L657.192,262.961C654.859,266.071 651.295,267.71 647.684,267.71Z" style="fill:black;fill-rule:nonzero;"/>
            </g>
        </g>
    </g>
</svg>
